<svg width="115" height="118" viewBox="0 0 115 118" fill="none" xmlns="http://www.w3.org/2000/svg">
<path d="M57.3525 0.220703L62.0363 14.6436L69.6059 1.60009L71.1847 16.7279L81.2862 5.67375L79.6863 20.7992L91.8475 12.2512L87.1437 26.6671L100.796 21.0249L93.208 34.0571L107.713 31.5846L97.5958 42.6237L112.275 43.4365L100.102 51.9664L114.269 56.0265L100.609 61.6483L113.602 68.7658L99.0935 71.2167L110.304 81.0589L95.6263 80.2241L104.531 92.3307L90.3694 88.2495L96.5514 102.054L83.5687 94.9175L86.7391 109.775L75.5421 99.9164L75.5527 115.132L66.6651 103.012L63.5153 117.875L57.3525 104.061L51.1898 117.875L48.04 103.012L39.1524 115.132L39.1629 99.9164L27.966 109.775L31.1364 94.9175L18.1537 102.054L24.3357 88.2495L10.1743 92.3307L19.0788 80.2241L4.40087 81.0589L15.6116 71.2167L1.10343 68.7658L14.0961 61.6483L0.436134 56.0265L14.6032 51.9664L2.43019 43.4365L17.1093 42.6237L6.99235 31.5846L21.4971 34.0571L13.9093 21.0249L27.5614 26.6671L22.8576 12.2512L35.0187 20.7992L33.4189 5.67375L43.5204 16.7279L45.0992 1.60009L52.6688 14.6436L57.3525 0.220703Z" fill="#D11515"/>
</svg>
